<?xml version="1.0" encoding="UTF-8"?><svg id="Ebene_2" xmlns="http://www.w3.org/2000/svg" viewBox="0 0 205 318.5"><defs><style>.cls-1{fill:none;stroke:#000;stroke-linecap:round;stroke-miterlimit:10;stroke-width:25px;}.cls-2{stroke-width:0px;}</style></defs><g id="Layer_1"><path class="cls-2" d="m156.5,54h0s-108,108-108,108V54C48.5,24.18,72.68,0,102.5,0h0c29.82,0,54,24.18,54,54Z"/><path class="cls-2" d="m156.5,108v54.14c0,.89-.02,1.77-.07,2.64-1.33,27.65-23.5,49.82-51.15,51.15-.87.05-1.75.07-2.64.07h-.14c-14.91,0-28.41-6.04-38.18-15.82l92.18-92.18Z"/><path class="cls-1" d="m12.5,144v18c0,49.71,40.29,90,90,90h0c49.71,0,90-40.29,90-90v-18"/><line class="cls-1" x1="102.5" y1="252" x2="102.5" y2="306"/><line class="cls-1" x1="12.5" y1="225" x2="192.5" y2="45"/></g></svg>